<?xml version="1.0" standalone="no"?>
<!DOCTYPE svg PUBLIC "-//W3C//DTD SVG 20010904//EN"
 "http://www.w3.org/TR/2001/REC-SVG-20010904/DTD/svg10.dtd">
<svg version="1.0" xmlns="http://www.w3.org/2000/svg"
 width="123.000000pt" height="123.000000pt" viewBox="0 0 123.000000 123.000000"
 preserveAspectRatio="xMidYMid meet">
<metadata>
Created by potrace 1.11, written by Peter Selinger 2001-2013
</metadata>
<g transform="translate(0.000000,123.000000) scale(0.100000,-0.100000)"
fill="#000000" stroke="none">
<path d="M855 998 c4 -11 3 -18 -4 -18 -6 0 -11 6 -11 13 0 9 -3 8 -9 -2 -5
-7 -13 -11 -19 -7 -6 3 -17 0 -25 -8 -8 -8 -17 -13 -20 -10 -3 3 -14 1 -24 -6
-17 -11 -17 -11 0 -6 11 3 15 2 12 -4 -3 -6 -12 -10 -20 -10 -8 0 -18 -7 -23
-16 -5 -9 -13 -17 -18 -17 -5 -1 -8 -6 -6 -11 2 -5 -4 -6 -13 -2 -9 3 -14 2
-11 -3 8 -12 -31 -44 -43 -36 -6 3 -11 2 -11 -4 0 -5 6 -12 13 -14 7 -3 4 -6
-6 -6 -10 -1 -15 -6 -12 -12 4 -6 -2 -13 -14 -16 -11 -3 -18 -10 -14 -16 4 -6
0 -8 -10 -4 -11 4 -14 2 -11 -8 3 -8 -8 -28 -25 -44 -18 -17 -29 -31 -25 -31
3 0 1 -6 -5 -13 -6 -8 -7 -18 -3 -23 4 -4 -2 -2 -12 6 -11 8 -17 10 -13 3 4
-6 0 -19 -9 -27 -8 -9 -12 -16 -8 -16 3 0 2 -6 -4 -13 -7 -7 -16 -37 -23 -66
-7 -32 -15 -51 -22 -48 -7 2 -21 -5 -32 -15 -20 -19 -20 -19 0 -13 11 3 7 -1
-9 -8 -18 -9 -24 -17 -17 -21 6 -4 11 -13 11 -19 0 -7 -4 -6 -10 3 -5 8 -10
13 -11 10 -9 -49 -7 -80 7 -80 9 0 12 5 8 13 -5 9 -4 9 5 1 14 -13 4 -47 -12
-37 -6 3 -7 1 -3 -5 4 -6 0 -28 -9 -48 -17 -42 -19 -54 -6 -54 5 0 19 25 31
55 28 69 47 86 66 60 13 -18 15 -18 33 -1 11 10 24 15 29 12 5 -3 9 0 10 7 3
33 11 52 22 49 6 -1 9 2 6 7 -4 5 5 22 19 37 30 33 31 33 3 28 -14 -2 -17 -1
-8 3 18 8 70 62 70 73 0 5 4 10 8 12 4 2 21 20 36 40 16 21 32 35 37 32 5 -3
8 0 7 7 -2 7 7 18 19 24 13 7 20 15 15 20 -4 4 1 5 10 2 13 -4 15 -2 11 10 -5
12 -2 15 10 10 11 -4 14 -2 10 9 -3 8 1 14 9 14 7 0 20 9 27 19 8 11 21 17 29
13 11 -4 13 -2 7 8 -6 10 -4 12 8 7 9 -3 16 -3 16 1 -3 21 3 32 17 32 10 0 14
6 10 15 -3 8 -2 15 3 15 5 0 11 9 14 21 4 13 10 19 19 14 7 -3 5 0 -5 8 -10 9
-18 18 -18 21 3 24 -3 37 -30 67 -16 19 -27 26 -24 17z"/>
<path d="M800 730 c-9 -6 -10 -10 -3 -10 6 0 15 5 18 10 8 12 4 12 -15 0z"/>
<path d="M710 661 c0 -6 4 -13 10 -16 6 -3 7 1 4 9 -7 18 -14 21 -14 7z"/>
<path d="M580 512 c0 -5 7 -9 15 -9 8 0 12 4 9 9 -3 4 -9 8 -15 8 -5 0 -9 -4
-9 -8z"/>
<path d="M553 435 c0 -8 4 -12 9 -9 5 3 6 10 3 15 -9 13 -12 11 -12 -6z"/>
<path d="M465 340 c-3 -5 -1 -10 4 -10 6 0 11 5 11 10 0 6 -2 10 -4 10 -3 0
-8 -4 -11 -10z"/>
<path d="M138 3 c6 -2 18 -2 25 0 6 3 1 5 -13 5 -14 0 -19 -2 -12 -5z"/>
<path d="M188 3 c6 -2 18 -2 25 0 6 3 1 5 -13 5 -14 0 -19 -2 -12 -5z"/>
<path d="M268 3 c6 -2 18 -2 25 0 6 3 1 5 -13 5 -14 0 -19 -2 -12 -5z"/>
<path d="M348 3 c6 -2 18 -2 25 0 6 3 1 5 -13 5 -14 0 -19 -2 -12 -5z"/>
<path d="M428 3 c6 -2 18 -2 25 0 6 3 1 5 -13 5 -14 0 -19 -2 -12 -5z"/>
<path d="M508 3 c6 -2 18 -2 25 0 6 3 1 5 -13 5 -14 0 -19 -2 -12 -5z"/>
<path d="M588 3 c6 -2 18 -2 25 0 6 3 1 5 -13 5 -14 0 -19 -2 -12 -5z"/>
<path d="M668 3 c6 -2 18 -2 25 0 6 3 1 5 -13 5 -14 0 -19 -2 -12 -5z"/>
<path d="M748 3 c6 -2 18 -2 25 0 6 3 1 5 -13 5 -14 0 -19 -2 -12 -5z"/>
<path d="M828 3 c6 -2 18 -2 25 0 6 3 1 5 -13 5 -14 0 -19 -2 -12 -5z"/>
<path d="M908 3 c6 -2 18 -2 25 0 6 3 1 5 -13 5 -14 0 -19 -2 -12 -5z"/>
<path d="M988 3 c6 -2 18 -2 25 0 6 3 1 5 -13 5 -14 0 -19 -2 -12 -5z"/>
</g>
</svg>
